<svg xmlns="http://www.w3.org/2000/svg" xmlns:xlink="http://www.w3.org/1999/xlink" width="1024" height="1024" class="icon" p-id="2705" t="1618463716325" version="1.1" viewBox="0 0 1024 1024"><defs><style type="text/css"/></defs><path fill="#515151" d="M238.08 844.8c-60.928 0-121.856-23.04-168.448-69.632a238.2336 238.2336 0 0 1 0-336.384l305.152-305.152c17.92-17.92 47.104-17.92 65.024 0s17.92 47.104 0 65.024L135.168 504.32a146.176 146.176 0 0 0 0 206.336 146.176 146.176 0 0 0 206.336 0l305.152-305.152c17.92-17.92 47.104-17.92 65.024 0s17.92 47.104 0 65.024l-305.152 305.152c-46.592 46.08-107.52 69.12-168.448 69.12z" p-id="2706"/><path fill="#515151" d="M616.448 832.512c-11.776 0-23.552-4.608-32.768-13.312a46.08 46.08 0 0 1 0-65.024l305.152-305.152a146.176 146.176 0 0 0 0-206.336 146.176 146.176 0 0 0-206.336 0L377.856 547.84c-17.92 17.92-47.104 17.92-65.024 0s-17.92-47.104 0-65.024l305.152-305.152a238.2336 238.2336 0 0 1 336.384 0 238.2336 238.2336 0 0 1 0 336.384L649.216 819.2c-9.216 8.704-20.992 13.312-32.768 13.312z" p-id="2707"/></svg>